<svg id="Capa_1" enable-background="new 0 0 512 512" height="512" viewBox="0 0 512 512" width="512" xmlns="http://www.w3.org/2000/svg" xmlns:xlink="http://www.w3.org/1999/xlink"><linearGradient id="SVGID_1_" gradientUnits="userSpaceOnUse" x1="23.821" x2="459.531" y1="343.269" y2="91.711"><stop offset="0" stop-color="#dcfdee" stop-opacity="0"/><stop offset=".6288" stop-color="#d2f3e4"/></linearGradient><linearGradient id="SVGID_2_" gradientUnits="userSpaceOnUse" x1="256" x2="256" y1="35.661" y2="476.339"><stop offset=".0028" stop-color="#ff7eb8" stop-opacity="0"/><stop offset="1" stop-color="#ff7eb8" stop-opacity=".6"/></linearGradient><g><g><path d="m16.074 302.88c18.727 64.003 72.707 194.564 163.922 182.844 91.486-11.754 55.758-129.724 139.508-145.893 36.867-7.118 61.857 56.689 98.806 54.704 47.588-2.557 71.81-49.663 85.108-89.264 28.197-83.968-14.029-226.352-112.858-251.011-86.245-21.519-96.332 83.855-171.322 53.248-42.149-17.203-37.938-68.576-89.272-78.942-155.299-31.36-138.811 189.15-113.892 274.314z" fill="url(#SVGID_1_)"/></g><g><g><g><path d="m350.232 476.339h-188.464c-16.568 0-30-13.432-30-30v-380.678c0-16.569 13.432-30 30-30h188.464c16.569 0 30 13.431 30 30v380.678c0 16.569-13.431 30-30 30z" fill="#6583fe"/><path d="m131.77 78.57h248.46v354.86h-248.46z" fill="#9fb0fe"/><g><path d="m131.77 78.57h248.46v118.287h-248.46z" fill="#97ffd2"/><path d="m131.77 196.857h248.46v118.287h-248.46z" fill="#01eca5"/></g><g><path d="m273.483 63.031h-34.966c-2.761 0-5-2.239-5-5s2.239-5 5-5h34.966c2.761 0 5 2.239 5 5 0 2.762-2.239 5-5 5z" fill="#b7c5ff"/></g><path d="m301.815 58.03c0 2.762-2.239 5.002-5.002 5.002-2.762 0-5.002-2.239-5.002-5.002 0-2.762 2.239-5.002 5.002-5.002s5.002 2.239 5.002 5.002z" fill="#b7c5ff"/></g><g><path d="m200.805 131.907c0-9.16-7.453-16.613-16.613-16.613-9.161 0-16.613 7.453-16.613 16.613 0 4.518 1.818 8.615 4.755 11.613-2.936 2.998-4.755 7.095-4.755 11.613 0 2.761 2.239 5 5 5s5-2.239 5-5c0-3.646 2.967-6.613 6.613-6.613s6.613 2.967 6.613 6.613c0 2.761 2.239 5 5 5s5-2.239 5-5c0-4.518-1.818-8.615-4.755-11.613 2.937-2.998 4.755-7.096 4.755-11.613zm-16.613-6.613c3.646 0 6.613 2.966 6.613 6.613s-2.967 6.613-6.613 6.613-6.613-2.967-6.613-6.613 2.966-6.613 6.613-6.613z" fill="#6583fe"/></g><g><g fill="#01eca5"><path d="m278.465 102.305h-47.681c-2.761 0-5 2.239-5 5s2.239 5 5 5h47.681c2.761 0 5-2.239 5-5s-2.239-5-5-5z"/><path d="m329.465 122.577h-98.681c-2.761 0-5 2.239-5 5s2.239 5 5 5h98.681c2.761 0 5-2.239 5-5s-2.239-5-5-5z"/></g><g><path d="m344.465 142.85h-113.681c-2.761 0-5 2.239-5 5s2.239 5 5 5h113.681c2.761 0 5-2.239 5-5 0-2.762-2.239-5-5-5z" fill="#fff"/></g><g><path d="m344.465 163.122h-113.681c-2.761 0-5 2.239-5 5s2.239 5 5 5h113.681c2.761 0 5-2.239 5-5s-2.239-5-5-5z" fill="#fff"/></g></g><g><path d="m200.805 250.193c0-9.16-7.453-16.613-16.613-16.613-9.161 0-16.613 7.453-16.613 16.613 0 4.518 1.818 8.615 4.755 11.613-2.936 2.998-4.755 7.095-4.755 11.613 0 2.761 2.239 5 5 5s5-2.239 5-5c0-3.646 2.967-6.613 6.613-6.613s6.613 2.967 6.613 6.613c0 2.761 2.239 5 5 5s5-2.239 5-5c0-4.518-1.818-8.615-4.755-11.613 2.937-2.997 4.755-7.095 4.755-11.613zm-16.613-6.613c3.646 0 6.613 2.966 6.613 6.613s-2.967 6.613-6.613 6.613-6.613-2.967-6.613-6.613 2.966-6.613 6.613-6.613z" fill="#fff"/></g><g><g fill="#fff"><path d="m278.465 220.592h-47.681c-2.761 0-5 2.239-5 5s2.239 5 5 5h47.681c2.761 0 5-2.239 5-5 0-2.762-2.239-5-5-5z"/><path d="m344.465 240.864h-113.681c-2.761 0-5 2.239-5 5s2.239 5 5 5h113.681c2.761 0 5-2.239 5-5s-2.239-5-5-5z"/></g><g><path d="m344.465 261.136h-113.681c-2.761 0-5 2.239-5 5s2.239 5 5 5h113.681c2.761 0 5-2.239 5-5s-2.239-5-5-5z" fill="#fff"/></g><g><path d="m344.465 281.408h-113.681c-2.761 0-5 2.239-5 5s2.239 5 5 5h113.681c2.761 0 5-2.239 5-5s-2.239-5-5-5z" fill="#fff"/></g></g><g><path d="m200.805 368.48c0-9.16-7.453-16.613-16.613-16.613-9.161 0-16.613 7.453-16.613 16.613 0 4.518 1.818 8.615 4.755 11.613-2.936 2.998-4.755 7.095-4.755 11.613 0 2.761 2.239 5 5 5s5-2.239 5-5c0-3.646 2.967-6.613 6.613-6.613s6.613 2.967 6.613 6.613c0 2.761 2.239 5 5 5s5-2.239 5-5c0-4.518-1.818-8.615-4.755-11.613 2.937-2.998 4.755-7.095 4.755-11.613zm-16.613-6.613c3.646 0 6.613 2.966 6.613 6.613s-2.967 6.613-6.613 6.613-6.613-2.967-6.613-6.613c-.001-3.647 2.966-6.613 6.613-6.613z" fill="#ff5ba8"/></g><g><g fill="#ff5ba8"><path d="m278.465 338.878h-47.681c-2.761 0-5 2.239-5 5s2.239 5 5 5h47.681c2.761 0 5-2.239 5-5s-2.239-5-5-5z"/><path d="m278.465 359.151h-47.681c-2.761 0-5 2.239-5 5s2.239 5 5 5h47.681c2.761 0 5-2.239 5-5 0-2.762-2.239-5-5-5z"/></g><g><path d="m344.465 379.423h-113.681c-2.761 0-5 2.239-5 5s2.239 5 5 5h113.681c2.761 0 5-2.239 5-5 0-2.762-2.239-5-5-5z" fill="#d2deff"/></g><g><path d="m344.465 399.695h-113.681c-2.761 0-5 2.239-5 5s2.239 5 5 5h113.681c2.761 0 5-2.239 5-5s-2.239-5-5-5z" fill="#d2deff"/></g></g><g><path d="m305.487 364.832 10.54-21.535c1.626-3.322-.792-7.198-4.491-7.198-1.909 0-3.652 1.087-4.491 2.802l-10.54 21.535c-1.626 3.322.792 7.198 4.491 7.198 1.909 0 3.652-1.087 4.491-2.802z" fill="#fff"/></g></g><path d="m95.115 280.428c-7.88 0-14.291-6.411-14.291-14.292 0-7.88 6.411-14.291 14.291-14.291 7.881 0 14.292 6.411 14.292 14.291 0 7.881-6.411 14.292-14.292 14.292zm0-18.583c-2.366 0-4.291 1.925-4.291 4.291s1.925 4.292 4.291 4.292 4.292-1.925 4.292-4.292c0-2.366-1.926-4.291-4.292-4.291z" fill="#01eca5"/><path d="m421.123 73.953c-7.88 0-14.291-6.411-14.291-14.292 0-7.88 6.411-14.292 14.291-14.292 7.881 0 14.292 6.411 14.292 14.292s-6.411 14.292-14.292 14.292zm0-18.583c-2.366 0-4.291 1.925-4.291 4.292s1.925 4.292 4.291 4.292 4.292-1.925 4.292-4.292-1.926-4.292-4.292-4.292z" fill="#6583fe"/><path d="m430.415 452.43c-2.762 0-5-2.239-5-5 0-3.309-2.691-6-6-6-2.762 0-5-2.239-5-5s2.238-5 5-5c3.309 0 6-2.692 6-6 0-2.761 2.238-5 5-5s5 2.239 5 5c0 3.309 2.691 6 6 6 2.762 0 5 2.239 5 5s-2.238 5-5 5c-3.309 0-6 2.691-6 6 0 2.761-2.238 5-5 5z" fill="#ff5ba8"/><path d="m421.123 409.58c-2.762 0-5-2.239-5-5 0-3.309-2.691-6-6-6-2.762 0-5-2.239-5-5s2.238-5 5-5c3.309 0 6-2.691 6-6 0-2.761 2.238-5 5-5s5 2.239 5 5c0 3.309 2.691 6 6 6 2.762 0 5 2.239 5 5s-2.238 5-5 5c-3.309 0-6 2.691-6 6 0 2.761-2.238 5-5 5z" fill="#6583fe"/><path d="m84.115 230.592c-2.762 0-5-2.239-5-5 0-3.309-2.691-6-6-6-2.762 0-5-2.239-5-5s2.238-5 5-5c3.309 0 6-2.692 6-6.001 0-2.761 2.238-5 5-5s5 2.239 5 5c0 3.309 2.691 6.001 6 6.001 2.762 0 5 2.239 5 5s-2.238 5-5 5c-3.309 0-6 2.691-6 6 0 2.761-2.238 5-5 5z" fill="#ff5ba8"/></g><path d="m350.232 476.339h-188.464c-16.568 0-30-13.432-30-30v-380.678c0-16.569 13.432-30 30-30h188.464c16.569 0 30 13.431 30 30v380.678c0 16.569-13.431 30-30 30z" fill="url(#SVGID_2_)"/></g></svg>