<svg height="512" viewBox="0 0 512 512" width="512" xmlns="http://www.w3.org/2000/svg"><g><g fill="#57a4ff"><path d="m324.57 64-68.57-48-68.57 48-123.43 86.4-48 33.6v48l48-33.6 192-134.4 192 134.4 48 33.6v-48l-48-33.6z"/><path d="m192 272h-96v192h-80v32h480v-32h-304z"/><path d="m240 272h160v112h-160z"/></g><g fill="#004fac"><path d="m491.41 238.55a8 8 0 0 0 12.59-6.55v-48a7.978 7.978 0 0 0 -3.41-6.55l-240-168a8 8 0 0 0 -9.18 0l-240 168a7.978 7.978 0 0 0 -3.41 6.55v48a8 8 0 0 0 12.59 6.55l35.41-24.78v242.23h-40a8 8 0 0 0 -8 8v32a8 8 0 0 0 8 8h480a8 8 0 0 0 8-8v-32a8 8 0 0 0 -8-8h-40v-242.23zm-3.41 233.45v16h-464v-16zm-296-208h-96a8 8 0 0 0 -8 8v184h-16v-253.43l184-128.8 184 128.8v253.43h-240v-184a8 8 0 0 0 -8-8zm-8 16v176h-80v-176zm76.59-222.55a7.99 7.99 0 0 0 -9.18 0l-227.41 159.18v-28.46l232-162.4 232 162.4v28.46z"/><path d="m232 272v104h-8a8 8 0 0 0 -8 8v24a8 8 0 0 0 8 8h192a8 8 0 0 0 8-8v-24a8 8 0 0 0 -8-8h-8v-104a8 8 0 0 0 -8-8h-160a8 8 0 0 0 -8 8zm176 128h-176v-8h176zm-160-120h144v96h-144z"/><circle cx="256" cy="208" r="8"/><path d="m272 198.111a8 8 0 0 0 5.338-13.961 32 32 0 0 0 -42.67 0 8 8 0 1 0 10.67 11.922 16 16 0 0 1 21.33 0 7.966 7.966 0 0 0 5.332 2.039z"/><path d="m218.665 166.261a8 8 0 1 0 10.67 11.922 40 40 0 0 1 53.33 0 8 8 0 1 0 10.67-11.922 56 56 0 0 0 -74.67 0z"/></g></g></svg>